<svg version="1.1" xmlns="http://www.w3.org/2000/svg" style="display: block;" viewBox="0 0 2036 1960" width="509" height="490" preserveAspectRatio="none">
<defs>
	<linearGradient id="Gradient1" gradientUnits="userSpaceOnUse" x1="340.878" y1="1074.94" x2="340.125" y2="1062.12">
		<stop class="stop0" offset="0" stop-opacity="0" stop-color="rgb(237,241,238)"/>
		<stop class="stop1" offset="1" stop-opacity="0.0156863" stop-color="rgb(244,238,251)"/>
	</linearGradient>
	<linearGradient id="Gradient2" gradientUnits="userSpaceOnUse" x1="1747.77" y1="628.881" x2="1932.19" y2="671.057">
		<stop class="stop0" offset="0" stop-opacity="1" stop-color="rgb(126,125,125)"/>
		<stop class="stop1" offset="1" stop-opacity="1" stop-color="rgb(148,148,148)"/>
	</linearGradient>
	<linearGradient id="Gradient3" gradientUnits="userSpaceOnUse" x1="1287.21" y1="732.316" x2="1899.91" y2="807.699">
		<stop class="stop0" offset="0" stop-opacity="1" stop-color="rgb(60,60,60)"/>
		<stop class="stop1" offset="1" stop-opacity="1" stop-color="rgb(111,111,111)"/>
	</linearGradient>
	<linearGradient id="Gradient4" gradientUnits="userSpaceOnUse" x1="1098.22" y1="1268.88" x2="1725.01" y2="729.313">
		<stop class="stop0" offset="0" stop-opacity="1" stop-color="rgb(8,8,8)"/>
		<stop class="stop1" offset="1" stop-opacity="1" stop-color="rgb(61,61,61)"/>
	</linearGradient>
	<linearGradient id="Gradient5" gradientUnits="userSpaceOnUse" x1="269.154" y1="1184.14" x2="307.254" y2="1225.66">
		<stop class="stop0" offset="0" stop-opacity="1" stop-color="rgb(32,32,31)"/>
		<stop class="stop1" offset="1" stop-opacity="1" stop-color="rgb(70,70,71)"/>
	</linearGradient>
</defs>
<path transform="translate(0,0)" fill="rgb(6,6,6)" d="M 196.042 971.633 C 192.728 967.017 182.643 956.113 182.503 951.29 C 181.084 904.275 181.992 856.8 182.327 809.73 C 182.809 805.57 183.635 792.976 187.673 791.124 C 226.174 773.462 267.533 757.311 306.238 740.339 L 854.908 498.25 C 911.306 473.274 967.921 448.559 1023.81 422.407 C 1025.73 421.509 1029.52 420.222 1031.49 421.351 C 1043.76 428.39 1054.14 439.448 1065.5 448.362 C 1076.05 456.528 1086.78 464.464 1097.67 472.165 C 1109.55 480.489 1130.53 491.689 1139.58 502.838 C 1141.66 505.401 1141.01 509.984 1140.32 513.11 C 1139.24 521.637 1137.69 531.922 1137.93 540.399 C 1145.15 557.102 1164.13 566.033 1157.76 586.588 C 1145.52 626.071 1129.69 665.433 1115.62 704.379 C 1112.09 714.119 1106.57 724.356 1096.4 727.644 C 1048.28 747.738 1001.68 771.741 953.644 791.77 C 951.79 792.543 950.255 791.094 949.102 789.923 C 947.042 776.201 961.902 745.776 956.772 729.496 C 949 728.917 946.283 730.284 939.046 733.331 L 938.17 733.348 C 935.615 729.925 937.889 719.955 938.546 715.68 L 937.09 712.793 C 931.728 711.472 917.739 716.923 912.614 719.225 C 838.604 752.467 765.371 787.347 690.924 819.675 C 683.163 823.045 652.06 834.847 648.433 841.059 C 650.034 844.636 653.921 844.439 657.51 844.742 C 670.984 846.009 687.443 845.682 701.081 845.659 L 765.943 845.648 C 813.223 845.907 858.979 848.881 906.392 847.769 C 935.108 847.096 974.702 843.151 1002.62 847.651 C 1007.11 851.65 1039.29 880.522 1041.04 883.177 C 1042.45 889.825 1042.2 900.114 1041.81 907.008 C 1042.14 911.646 1042.3 914.412 1043.23 919.035 C 1054.7 938.295 1061.59 932.408 1054.89 959.393 C 1043.27 1006.18 1030.52 1052.71 1018.94 1099.51 C 1014.44 1117.47 1011.65 1134.53 1008.67 1152.73 C 1007.98 1157 1004.54 1162.8 1000.65 1164.78 C 987.562 1172.06 972.551 1177.95 958.952 1184.49 L 838.237 1241.25 C 663.836 1325.57 488.946 1408.88 313.577 1491.16 C 268.214 1512.98 222.675 1534.43 176.966 1555.51 C 165.472 1560.8 126.537 1580.04 115.674 1581.19 C 103.049 1575.54 56.8418 1503.64 46.7296 1487.66 C 46.6636 1487.44 46.5976 1487.23 46.5316 1487.02 C 40.4339 1477.74 39.8556 1466.76 38.6957 1455.77 C 35.2351 1445.06 18.6749 1429.76 18.7876 1420.54 C 18.8274 1417.28 20.245 1413.99 21.5447 1411.07 C 27.5242 1397.61 35.7972 1384.75 42.6119 1371.66 C 52.6934 1352.29 99.8764 1256.2 111.949 1245.06 C 124.312 1233.65 149.206 1223.41 164.476 1215.23 C 198.394 1197.06 232.907 1179.09 265.831 1159.17 C 275.349 1153.41 304.6 1131.62 313.528 1133.06 C 316.229 1133.5 317.408 1134.68 318.961 1136.78 C 319.276 1150.85 314.253 1172.45 307.808 1184.69 C 307.851 1189.2 307.407 1190.78 309.775 1194.33 C 313.156 1197.05 316.899 1197.63 321.165 1198.81 C 323.979 1211.28 321.314 1223.82 324.061 1229.95 C 331.786 1227.71 354.135 1216.77 362.46 1212.95 C 390.584 1200.21 418.577 1187.18 446.436 1173.87 C 488.22 1154.58 529.906 1135.08 571.493 1115.38 C 594.659 1104.41 628.504 1089.14 649.136 1075.51 C 640.809 1067.77 565.181 1068.99 549.17 1068.97 L 431.617 1068.23 C 375.323 1066.44 319.171 1066.83 263.054 1065.29 C 258.204 1064.84 250.066 1064.01 246.183 1060.73 C 231.181 1048.03 212.407 1030.09 200.659 1014.75 C 193.795 1005.79 198.637 983.391 196.042 971.633 z"/>
<path transform="translate(0,0)" fill="rgb(140,139,139)" d="M 994.677 1106.09 C 1000.06 1098.39 1003.85 1084.55 1006.55 1075.5 C 1021.56 1025.2 1031.16 973.32 1040.88 921.792 C 1041.66 920.873 1042.44 919.954 1043.23 919.035 C 1054.7 938.295 1061.59 932.408 1054.89 959.393 C 1043.27 1006.18 1030.52 1052.71 1018.94 1099.51 C 1014.44 1117.47 1011.65 1134.53 1008.67 1152.73 C 1007.98 1157 1004.54 1162.8 1000.65 1164.78 C 987.562 1172.06 972.551 1177.95 958.952 1184.49 L 838.237 1241.25 C 663.836 1325.57 488.946 1408.88 313.577 1491.16 C 268.214 1512.98 222.675 1534.43 176.966 1555.51 C 165.472 1560.8 126.537 1580.04 115.674 1581.19 C 103.049 1575.54 56.8418 1503.64 46.7296 1487.66 C 46.6636 1487.44 46.5976 1487.23 46.5316 1487.02 C 45.5845 1482.42 44.9322 1480.48 45.3413 1475.8 L 46.6966 1473.78 C 52.7849 1474.34 58.9609 1482.37 62.9277 1487.14 C 67.1615 1492.2 71.0313 1497.55 74.5081 1503.16 C 80.319 1512.71 81.3827 1521.19 92.5884 1524.08 C 94.7261 1526.2 97.3547 1529.06 100.626 1527.96 C 113.291 1523.68 125.306 1516.89 137.548 1511.32 C 184.948 1489.95 232.081 1468.01 278.937 1445.47 L 774.549 1212.73 L 922.451 1143.36 C 942.959 1133.71 963.917 1124.39 984.416 1114.71 C 988.557 1112.76 991.958 1109.76 994.677 1106.09 z"/>
<path transform="translate(0,0)" fill="rgb(140,139,139)" d="M 196.042 971.633 C 202.796 975.682 214.005 988.533 219.385 994.924 C 222.836 1001.46 230.728 1008.98 236.396 1013.75 C 252.969 1015.33 274.308 1014.86 291.407 1015.21 C 392.496 1017.15 493.599 1018.33 594.706 1018.75 C 613.83 1018.9 753.786 1018.66 759.887 1022.46 C 734.239 1035.76 708.073 1048.34 681.837 1060.43 C 675.987 1063.13 653.903 1074.05 649.136 1075.51 C 640.809 1067.77 565.181 1068.99 549.17 1068.97 L 431.617 1068.23 C 375.323 1066.44 319.171 1066.83 263.054 1065.29 C 258.204 1064.84 250.066 1064.01 246.183 1060.73 C 231.181 1048.03 212.407 1030.09 200.659 1014.75 C 193.795 1005.79 198.637 983.391 196.042 971.633 z"/>
<path transform="translate(0,0)" fill="rgb(140,139,139)" d="M 512.833 842.353 L 514.075 841.6 C 524.637 835.276 551.672 823.122 564.406 816.956 C 626.093 787.088 689.111 758.42 751.683 730.397 C 773.419 720.662 795.161 709.17 816.662 698.728 C 854.552 680.278 892.868 662.716 931.578 646.055 C 936.325 644.051 948.633 638.67 953.531 639.909 C 951.741 651.799 942.421 707.162 938.546 715.68 L 937.09 712.793 C 931.728 711.472 917.739 716.923 912.614 719.225 C 838.604 752.467 765.371 787.347 690.924 819.675 C 683.163 823.045 652.06 834.847 648.433 841.059 C 650.034 844.636 653.921 844.439 657.51 844.742 C 616.953 845.916 567.506 844.382 526.25 843.868 C 522.386 843.132 516.874 842.758 512.833 842.353 z"/>
<path transform="translate(0,0)" fill="rgb(67,67,67)" d="M 92.4176 1521.1 C 96.1099 1519.64 109.877 1505.82 118.917 1501.7 C 173.854 1476.65 228.543 1450.93 283.334 1425.55 L 773.871 1196.36 C 799.238 1184.32 987.191 1100.44 992.733 1089.03 C 993.832 1096.79 994.594 1098.43 994.677 1106.09 C 991.958 1109.76 988.557 1112.76 984.416 1114.71 C 963.917 1124.39 942.959 1133.71 922.451 1143.36 L 774.549 1212.73 L 278.937 1445.47 C 232.081 1468.01 184.948 1489.95 137.548 1511.32 C 125.306 1516.89 113.291 1523.68 100.626 1527.96 C 97.3547 1529.06 94.7261 1526.2 92.5884 1524.08 L 92.4176 1521.1 z"/>
<path transform="translate(0,0)" fill="rgb(140,139,139)" d="M 1125.68 565.305 C 1130.1 556.649 1130.66 545.035 1137.93 540.399 C 1145.15 557.102 1164.13 566.033 1157.76 586.588 C 1145.52 626.071 1129.69 665.433 1115.62 704.379 C 1112.09 714.119 1106.57 724.356 1096.4 727.644 C 1048.28 747.738 1001.68 771.741 953.644 791.77 C 951.79 792.543 950.255 791.094 949.102 789.923 C 947.042 776.201 961.902 745.776 956.772 729.496 C 957.9 728.746 957.619 728.799 958.847 728.439 C 993.478 718.27 1025.56 699.967 1059.39 687.26 C 1073.31 682.032 1092.97 674.632 1104.03 665.426 C 1106.79 658.858 1110.81 637.474 1110.8 630.166 C 1115.46 609.582 1120.36 585.385 1125.68 565.305 z"/>
<path transform="translate(0,0)" fill="rgb(67,67,67)" d="M 219.385 994.924 C 223.294 995.922 251.286 995.914 257.113 995.932 L 337.196 996.162 L 649.496 999.002 L 729.779 1000.03 C 753.043 1000.19 776.849 999.638 799.912 1002.42 C 793.402 1005.94 766.352 1020.77 759.887 1022.46 C 753.786 1018.66 613.83 1018.9 594.706 1018.75 C 493.599 1018.33 392.496 1017.15 291.407 1015.21 C 274.308 1014.86 252.969 1015.33 236.396 1013.75 C 230.728 1008.98 222.836 1001.46 219.385 994.924 z"/>
<path transform="translate(0,0)" fill="rgb(67,67,67)" d="M 482.636 842.164 C 495.984 833.223 530.333 818.29 546.086 811.099 L 638.281 768.244 L 956.339 617.748 C 955.816 624.304 955.438 633.963 953.531 639.909 C 948.633 638.67 936.325 644.051 931.578 646.055 C 892.868 662.716 854.552 680.278 816.662 698.728 C 795.161 709.17 773.419 720.662 751.683 730.397 C 689.111 758.42 626.093 787.088 564.406 816.956 C 551.672 823.122 524.637 835.276 514.075 841.6 L 512.833 842.353 C 516.874 842.758 522.386 843.132 526.25 843.868 C 510.653 844.136 498.178 844.71 482.636 842.164 z"/>
<path transform="translate(0,0)" fill="url(#Gradient5)" d="M 256.573 1259.56 C 260.695 1242.01 269.384 1223.99 276.441 1206.98 C 284.415 1187.76 290.346 1157.43 309.089 1146.22 C 314.478 1143 315.362 1141.63 318.961 1136.78 C 319.276 1150.85 314.253 1172.45 307.808 1184.69 C 307.851 1189.2 307.407 1190.78 309.775 1194.33 C 313.156 1197.05 316.899 1197.63 321.165 1198.81 C 323.979 1211.28 321.314 1223.82 324.061 1229.95 C 309.703 1235.72 300.964 1240.56 287.185 1247.76 C 281.065 1252.57 264.192 1257.54 256.573 1259.56 z"/>
<path transform="translate(0,0)" fill="rgb(140,139,139)" d="M 287.185 1247.76 C 285.473 1238.27 302.891 1194.9 307.808 1184.69 C 307.851 1189.2 307.407 1190.78 309.775 1194.33 C 313.156 1197.05 316.899 1197.63 321.165 1198.81 C 323.979 1211.28 321.314 1223.82 324.061 1229.95 C 309.703 1235.72 300.964 1240.56 287.185 1247.76 z"/>
<path transform="translate(0,0)" fill="rgb(67,67,67)" d="M 939.046 733.331 C 942.59 709.942 1076.47 668.737 1098.79 653.09 C 1105.13 648.64 1106.51 636.443 1110.8 630.166 C 1110.81 637.474 1106.79 658.858 1104.03 665.426 C 1092.97 674.632 1073.31 682.032 1059.39 687.26 C 1025.56 699.967 993.478 718.27 958.847 728.439 C 957.619 728.799 957.9 728.746 956.772 729.496 C 949 728.917 946.283 730.284 939.046 733.331 z"/>
<path transform="translate(0,0)" fill="rgb(67,67,67)" d="M 1025.69 939.386 C 1028.67 936.456 1032.29 922.27 1033.64 917.444 L 1033.54 920.504 C 1034.62 916.139 1034.97 913.681 1037.27 909.725 L 1039.52 909.29 C 1040.34 907.34 1039.74 908.21 1041.81 907.008 C 1042.14 911.646 1042.3 914.412 1043.23 919.035 C 1042.44 919.954 1041.66 920.873 1040.88 921.792 C 1031.16 973.32 1021.56 1025.2 1006.55 1075.5 C 1003.85 1084.55 1000.06 1098.39 994.677 1106.09 C 994.594 1098.43 993.832 1096.79 992.733 1089.03 C 999.913 1060.51 1006.22 1031.78 1011.64 1002.88 C 1014.5 988.088 1021.14 952.422 1025.69 939.386 z"/>
<path transform="translate(0,0)" fill="rgb(67,67,67)" d="M 38.6957 1455.77 C 39.9051 1456.18 41.1146 1456.59 42.324 1457 C 52.1805 1471.8 85.6601 1509.19 92.4176 1521.1 L 92.5884 1524.08 C 81.3827 1521.19 80.319 1512.71 74.5081 1503.16 C 71.0313 1497.55 67.1615 1492.2 62.9277 1487.14 C 58.9609 1482.37 52.7849 1474.34 46.6966 1473.78 L 45.3413 1475.8 C 44.9322 1480.48 45.5845 1482.42 46.5316 1487.02 C 40.4339 1477.74 39.8556 1466.76 38.6957 1455.77 z"/>
<path transform="translate(0,0)" fill="rgb(67,67,67)" d="M 1131.32 518.708 L 1140.32 513.11 C 1139.24 521.637 1137.69 531.922 1137.93 540.399 C 1130.66 545.035 1130.1 556.649 1125.68 565.305 C 1126.41 549.655 1128.3 534.081 1131.32 518.708 z"/>
<path transform="translate(0,0)" fill="rgb(67,67,67)" d="M 1041.04 883.177 C 1042.45 889.825 1042.2 900.114 1041.81 907.008 C 1039.74 908.21 1040.34 907.34 1039.52 909.29 L 1037.27 909.725 C 1034.97 913.681 1034.62 916.139 1033.54 920.504 L 1033.64 917.444 C 1032.29 922.27 1028.67 936.456 1025.69 939.386 C 1028.31 922.905 1032.53 906.151 1035.22 889.315 C 1037.17 887.283 1039.11 885.237 1041.04 883.177 z"/>
<path transform="translate(0,0)" fill="url(#Gradient4)" d="M 1809.42 480.364 L 1898.7 445.35 C 1910.44 440.669 1951.95 422.667 1961.03 421.87 L 1962.87 422.787 C 1964.44 433.444 1947.73 470.515 1946.25 482.955 C 1945.94 485.587 1947.64 486.753 1949.22 488.15 C 1959.23 490.777 1966.53 483.189 1973.97 488.734 C 1977.07 495.872 1970.68 510.3 1967.67 517.567 C 1930.8 606.524 1893.62 695.27 1857.9 784.702 C 1852.13 799.147 1847.7 802.792 1833.77 809.272 C 1789.98 829.651 1745.12 847.387 1702.73 870.667 C 1700.42 871.933 1696.92 872.89 1694.32 873.279 C 1686.6 867.208 1710.89 817.943 1707.06 801.291 C 1692.21 801.082 1685.52 810.608 1677.26 812.258 C 1675.48 807.958 1682.45 781.379 1683.93 774.073 C 1672.1 775.541 1644.44 786.795 1632.9 791.33 L 1569.32 816.454 L 1428.66 872.487 L 1357.66 899.835 C 1348.32 903.522 1338.35 906.433 1329.78 911.522 C 1325.32 922.332 1323.13 932.417 1319.23 943.041 C 1310.41 967.081 1302.62 991.076 1294.61 1015.4 C 1287.11 1037.54 1279.89 1059.76 1272.96 1082.08 C 1270.4 1090.13 1259.46 1117.06 1263.85 1123.4 L 1265.28 1123.56 C 1277.86 1124.91 1298.12 1124.5 1311.38 1124.49 L 1382.46 1124.35 L 1638.1 1122.3 L 1699.61 1121.93 C 1715.02 1121.87 1733.29 1120.78 1748 1124.01 L 1748.89 1125.15 C 1745.51 1137.24 1727.75 1160.17 1720.6 1179.03 C 1726.3 1188.55 1764.1 1177.59 1772.92 1186.81 C 1773.59 1191.31 1767.85 1198.52 1765.19 1202.15 C 1749.9 1222.98 1649.77 1350.48 1636.98 1354.02 C 1626.63 1356.88 1604.12 1355.22 1592.76 1355.17 L 1505.63 1354.73 L 1275.73 1353.07 C 1262.33 1352.95 1141.87 1353.52 1136.12 1348.03 C 1109.94 1323.05 1071.28 1276.99 1046.66 1247.13 C 1038.75 1237.53 1043.65 1220.9 1041.18 1208.81 C 1038.74 1201.62 1032.98 1194.26 1028.47 1188.24 C 1027.95 1167.56 1039.4 1145.23 1045.62 1125.22 L 1119.22 891.311 C 1130.29 854.255 1141.72 817.308 1153.51 780.476 C 1158.2 765.317 1165.48 737.012 1172.09 724.299 C 1179.96 720.644 1188.75 717.276 1197.03 714.595 C 1231.08 703.567 1263.81 689.87 1297.16 677.121 L 1373.24 648.838 L 1514.58 594.816 C 1543.36 583.587 1584.44 566.534 1613.26 557.674 C 1618.23 554.429 1634.9 548.642 1641.52 546.02 C 1662.22 537.578 1683.03 529.382 1703.93 521.434 C 1737.39 508.599 1775.75 491.796 1809.42 480.364 z"/>
<path transform="translate(0,0)" fill="url(#Gradient3)" d="M 1809.42 480.364 L 1898.7 445.35 C 1910.44 440.669 1951.95 422.667 1961.03 421.87 L 1962.87 422.787 C 1964.44 433.444 1947.73 470.515 1946.25 482.955 C 1945.94 485.587 1947.64 486.753 1949.22 488.15 C 1959.23 490.777 1966.53 483.189 1973.97 488.734 C 1977.07 495.872 1970.68 510.3 1967.67 517.567 C 1930.8 606.524 1893.62 695.27 1857.9 784.702 C 1852.13 799.147 1847.7 802.792 1833.77 809.272 C 1789.98 829.651 1745.12 847.387 1702.73 870.667 C 1700.42 871.933 1696.92 872.89 1694.32 873.279 C 1686.6 867.208 1710.89 817.943 1707.06 801.291 C 1692.21 801.082 1685.52 810.608 1677.26 812.258 C 1675.48 807.958 1682.45 781.379 1683.93 774.073 C 1672.1 775.541 1644.44 786.795 1632.9 791.33 L 1569.32 816.454 L 1428.66 872.487 L 1357.66 899.835 C 1348.32 903.522 1338.35 906.433 1329.78 911.522 C 1325.32 922.332 1323.13 932.417 1319.23 943.041 C 1310.41 967.081 1302.62 991.076 1294.61 1015.4 C 1287.11 1037.54 1279.89 1059.76 1272.96 1082.08 C 1270.4 1090.13 1259.46 1117.06 1263.85 1123.4 C 1257.98 1124.42 1235.83 1122.54 1229.19 1121.96 C 1232.37 1105.24 1241.05 1083.74 1247.18 1067.47 C 1241.48 1050.62 1259.3 1004.96 1265.42 986.344 L 1284.52 926.519 C 1293.33 899.69 1300.53 871.475 1309.64 843.935 C 1319.35 838.932 1339.72 832.872 1350.95 828.34 C 1391.22 812.088 1433.36 798.534 1473.87 782.839 C 1511.73 768.174 1542.49 751.899 1582.03 740.277 C 1584.76 737.364 1590.69 729.96 1590.45 725.869 C 1588.26 688.607 1578.4 652.22 1581.23 614.548 C 1582.43 598.593 1580.99 591.264 1587.22 575.885 C 1585.81 574.084 1586.17 574.65 1585.15 572.466 C 1590 563.82 1607.31 565.008 1613.26 557.674 C 1618.23 554.429 1634.9 548.642 1641.52 546.02 C 1662.22 537.578 1683.03 529.382 1703.93 521.434 C 1737.39 508.599 1775.75 491.796 1809.42 480.364 z"/>
<path transform="translate(0,0)" fill="url(#Gradient2)" d="M 1809.42 480.364 L 1898.7 445.35 C 1910.44 440.669 1951.95 422.667 1961.03 421.87 L 1962.87 422.787 C 1964.44 433.444 1947.73 470.515 1946.25 482.955 C 1945.94 485.587 1947.64 486.753 1949.22 488.15 C 1959.23 490.777 1966.53 483.189 1973.97 488.734 C 1977.07 495.872 1970.68 510.3 1967.67 517.567 C 1930.8 606.524 1893.62 695.27 1857.9 784.702 C 1852.13 799.147 1847.7 802.792 1833.77 809.272 C 1789.98 829.651 1745.12 847.387 1702.73 870.667 C 1700.42 871.933 1696.92 872.89 1694.32 873.279 C 1686.6 867.208 1710.89 817.943 1707.06 801.291 C 1709.97 798.19 1819.47 755.322 1835.53 745.007 C 1839.58 742.405 1842.53 735.667 1844.51 731.272 C 1850.41 718.096 1854.85 703.972 1860.17 690.521 L 1896.28 601.445 C 1910.96 565.821 1928.62 530.379 1941.43 493.987 C 1945.27 483.088 1939.28 486.688 1941.04 477.211 L 1940.3 476.924 C 1934.55 488.533 1933.57 495.249 1929.14 505.375 C 1907.33 555.981 1886.27 606.908 1865.97 658.141 C 1858.22 677.733 1849.93 701.822 1840.44 720.668 C 1835.98 729.534 1825.57 731.86 1818.18 736.297 C 1809.61 729.889 1793.85 693.09 1790.7 681.977 C 1784.22 659.088 1782.22 632.353 1781.53 608.508 C 1780.93 587.729 1781.75 565.157 1787.48 545.088 C 1793.1 524.816 1804.88 506.459 1810.26 486.083 C 1810.89 483.684 1810.32 484.129 1812.1 481.642 C 1811.15 480.955 1810.53 480.819 1809.42 480.364 z"/>
<path transform="translate(0,0)" fill="rgb(140,139,139)" d="M 1247.18 1067.47 C 1268.3 1021.11 1282.78 969.057 1298.7 920.777 C 1304.86 902.092 1307.18 880.514 1313.16 861.601 C 1315.21 855.133 1320.39 854.982 1325.76 851.876 C 1357.71 840.074 1389.53 827.615 1421.22 815.13 L 1615.82 737.121 C 1648.11 723.928 1680.04 711.68 1711.97 697.42 C 1706.3 709.185 1689.38 770.388 1683.93 774.073 C 1672.1 775.541 1644.44 786.795 1632.9 791.33 L 1569.32 816.454 L 1428.66 872.487 L 1357.66 899.835 C 1348.32 903.522 1338.35 906.433 1329.78 911.522 C 1325.32 922.332 1323.13 932.417 1319.23 943.041 C 1310.41 967.081 1302.62 991.076 1294.61 1015.4 C 1287.11 1037.54 1279.89 1059.76 1272.96 1082.08 C 1270.4 1090.13 1259.46 1117.06 1263.85 1123.4 C 1257.98 1124.42 1235.83 1122.54 1229.19 1121.96 C 1232.37 1105.24 1241.05 1083.74 1247.18 1067.47 z"/>
<path transform="translate(0,0)" fill="rgb(140,139,139)" d="M 1640.25 1284.88 C 1660.69 1258.85 1680.82 1232.59 1700.65 1206.1 C 1704.72 1200.7 1717.86 1181.17 1720.6 1179.03 C 1726.3 1188.55 1764.1 1177.59 1772.92 1186.81 C 1773.59 1191.31 1767.85 1198.52 1765.19 1202.15 C 1749.9 1222.98 1649.77 1350.48 1636.98 1354.02 C 1626.63 1356.88 1604.12 1355.22 1592.76 1355.17 L 1505.63 1354.73 L 1275.73 1353.07 C 1262.33 1352.95 1141.87 1353.52 1136.12 1348.03 C 1109.94 1323.05 1071.28 1276.99 1046.66 1247.13 C 1038.75 1237.53 1043.65 1220.9 1041.18 1208.81 L 1042.5 1209.71 C 1054.26 1217.6 1099.77 1270.68 1110.09 1284.23 L 1514.55 1284.99 L 1607.67 1285.44 C 1617.23 1285.46 1631.68 1284.51 1640.25 1284.88 z"/>
<path transform="translate(0,0)" fill="rgb(67,67,67)" d="M 1110.09 1284.23 L 1514.55 1284.99 L 1607.67 1285.44 C 1617.23 1285.46 1631.68 1284.51 1640.25 1284.88 C 1635.83 1292.43 1630.86 1299.03 1625.73 1306.09 C 1608.12 1307.17 1581.51 1306.3 1563.28 1306.24 L 1453.67 1305.88 L 1124.32 1303.95 C 1118.58 1298.04 1113.62 1291.71 1110.09 1284.23 z"/>
<path transform="translate(0,0)" fill="url(#Gradient1)" d="M 263.054 1065.29 C 319.171 1066.83 375.323 1066.44 431.617 1068.23 C 419.701 1071.55 415.045 1070.37 402.846 1070.29 L 353.952 1070.06 L 295.612 1070.07 C 289.446 1070.08 259.171 1071.27 255.903 1067.16 C 259.251 1065.18 258.793 1065.71 263.054 1065.29 z"/>
</svg>